<?xml version="1.0" encoding="UTF-8" standalone="no"?>
<svg
   version="1.1"
   id="Layer_1"
   x="0px"
   y="0px"
   width="100%"
   viewBox="0 0 256 256"
   enable-background="new 0 0 256 256"
   xml:space="preserve"
   sodipodi:docname="logo-accent.svg"
   inkscape:version="1.3.2 (091e20e, 2023-11-25, custom)"
   xmlns:inkscape="http://www.inkscape.org/namespaces/inkscape"
   xmlns:sodipodi="http://sodipodi.sourceforge.net/DTD/sodipodi-0.dtd"
   xmlns="http://www.w3.org/2000/svg"
   xmlns:svg="http://www.w3.org/2000/svg"><defs
   id="defs3" /><sodipodi:namedview
   id="namedview3"
   pagecolor="#ffffff"
   bordercolor="#000000"
   borderopacity="0.25"
   inkscape:showpageshadow="2"
   inkscape:pageopacity="0.0"
   inkscape:pagecheckerboard="0"
   inkscape:deskcolor="#d1d1d1"
   inkscape:zoom="2.1461796"
   inkscape:cx="101.57584"
   inkscape:cy="150.73296"
   inkscape:window-width="1920"
   inkscape:window-height="991"
   inkscape:window-x="-9"
   inkscape:window-y="-9"
   inkscape:window-maximized="1"
   inkscape:current-layer="Layer_1" />

<path
   fill="#2A6D4E"
   opacity="1.000000"
   stroke="none"
   d=" M88.002632,100.251526   C90.628868,69.912888 112.121033,45.917820 141.260513,41.207428   C161.723709,37.899555 180.201553,42.636662 196.142365,56.538002   C210.790512,69.312065 217.333740,85.541374 218.007263,104.570107   C218.330963,113.715233 213.104111,118.605743 204.981659,118.765442   C197.500793,118.912514 191.656052,115.731247 191.174332,105.357552   C190.747437,96.164253 187.700500,88.516823 182.208572,81.252327   C173.020981,69.099319 153.928391,63.551655 139.813461,69.662621   C123.421608,76.759377 114.702980,88.938019 114.969162,107.169746   C115.139351,118.826927 115.181557,130.492798 114.920052,142.146667   C114.784775,148.175125 113.729080,154.015594 107.154503,156.965591   C98.123528,161.017731 88.122421,155.045639 88.034355,145.196518   C87.901817,130.373199 88.000168,115.547821 88.002632,100.251526  z"
   id="path2"
   style="fill:#53d096;fill-opacity:1" />
<path
   fill="#2A6D4E"
   opacity="1.000000"
   stroke="none"
   d=" M142.016022,161.815506   C142.371368,159.108994 142.938782,156.829819 142.954346,154.546875   C143.042862,141.558563 142.967697,128.569260 143.012863,115.580498   C143.041122,107.455284 147.778992,102.152168 155.005295,101.997414   C164.241089,101.799614 169.814575,106.530212 169.939133,115.248528   C170.131775,128.734222 170.590271,142.257172 169.863861,155.706421   C168.319366,184.301392 154.659317,205.534531 127.530617,215.342346   C105.167816,223.427124 83.062386,220.675323 63.792221,205.262741   C47.170815,191.968643 39.304829,174.530502 39.984356,153.223846   C40.213627,146.035049 45.274651,141.092056 52.755733,141.006729   C60.375916,140.919830 65.693756,145.995270 66.024353,153.337799   C66.845558,171.577103 77.826462,186.876785 95.871460,191.458435   C114.207817,196.114029 134.339096,185.131592 140.508652,166.975769   C141.039978,165.412201 141.487045,163.820007 142.016022,161.815506  z"
   id="path3"
   style="fill:#53d096;fill-opacity:1" />
</svg>
