<?xml version="1.0" encoding="UTF-8" standalone="no"?>
<!-- Uploaded to: SVG Repo, www.svgrepo.com, Generator: SVG Repo Mixer Tools -->

<svg
   width="800px"
   height="800px"
   viewBox="0 0 24 24"
   fill="none"
   version="1.1"
   id="svg2"
   sodipodi:docname="login.svg"
   inkscape:version="1.3.2 (091e20e, 2023-11-25, custom)"
   xmlns:inkscape="http://www.inkscape.org/namespaces/inkscape"
   xmlns:sodipodi="http://sodipodi.sourceforge.net/DTD/sodipodi-0.dtd"
   xmlns="http://www.w3.org/2000/svg"
   xmlns:svg="http://www.w3.org/2000/svg">
  <defs
     id="defs2" />
  <sodipodi:namedview
     id="namedview2"
     pagecolor="#ffffff"
     bordercolor="#000000"
     borderopacity="0.25"
     inkscape:showpageshadow="2"
     inkscape:pageopacity="0.0"
     inkscape:pagecheckerboard="0"
     inkscape:deskcolor="#d1d1d1"
     inkscape:zoom="0.68677746"
     inkscape:cx="583.88637"
     inkscape:cy="389.50026"
     inkscape:window-width="1920"
     inkscape:window-height="991"
     inkscape:window-x="-9"
     inkscape:window-y="-9"
     inkscape:window-maximized="1"
     inkscape:current-layer="svg2" />
  <path
     d="m 11,2 c 2.7614,0 5,2.23858 5,5 0,0.55228 -0.44772,1 -1,1 C 14.44772,8 14,7.55228 14,7 14,5.34315 12.6569,4 11,4 H 7 C 5.3431,4 4,5.34315 4,7 v 10 c 0,1.6569 1.3431,3 3,3 h 4 c 1.6569,0 3,-1.3431 3,-3 0,-0.5523 0.44772,-1 1,-1 0.55228,0 1,0.4477 1,1 0,2.7614 -2.2386,5 -5,5 H 7 C 4.2386,22 2,19.7614 2,17 V 7 C 2,4.23858 4.2386,2 7,2 Z"
     fill="#000000"
     id="path1"
     style="stroke-width:0.99999;stroke-dasharray:none;fill:#2c6c4e;fill-opacity:1" />
  <path
     d="m 10.0858,11 c -0.55228,0 -1,0.4477 -1,1 0,0.5523 0.44772,1 1,1 h 8.2821 c -0.089,0.1098 -0.1743,0.2163 -0.255,0.318 -0.2455,0.3097 -0.4533,0.5816 -0.6001,0.7765 -0.0734,0.0976 -0.1318,0.176 -0.172,0.2306 l -0.0466,0.0633 -0.0125,0.0171 -0.0044,0.006 c -10e-5,10e-5 -5e-4,7e-4 0.8085,0.5885 l -0.8085,-0.5885 c -0.32463,0.4468 -0.22609,1.0729 0.2207,1.3975 0.4468,0.3246 1.0721,0.2256 1.3968,-0.2211 l 0.0028,-0.0039 0.0102,-0.014 0.0418,-0.0568 c 0.0369,-0.05 0.0915,-0.1235 0.1609,-0.2157 0.139,-0.1845 0.3365,-0.4429 0.5695,-0.7369 0.4713,-0.5943 1.0681,-1.3087 1.6129,-1.8535 L 22,12 21.2929,11.2929 C 20.7481,10.7481 20.1513,10.0337 19.68,9.43937 19.447,9.14542 19.2495,8.88702 19.1105,8.7025 19.0411,8.61033 18.9865,8.53682 18.9496,8.48679 L 18.9078,8.43002 18.8976,8.41602 18.8953,8.41281 C 18.5706,7.96606 17.9448,7.86637 17.498,8.19098 c -0.44679,0.32463 -0.54584,0.95 -0.2212,1.3968 L 18.0858,9 c -0.809,0.58778 -0.8091,0.58773 -0.809,0.58778 l 0.0015,0.00207 0.0034,0.00469 0.0125,0.01708 0.0466,0.0633 c 0.0402,0.05454 0.0986,0.13303 0.172,0.23057 0.1468,0.19491 0.3546,0.46681 0.6001,0.77651 0.0807,0.1017 0.166,0.2082 0.255,0.318 z"
     fill="#000000"
     id="path2"
     style="fill:#2c6c4e;fill-opacity:1;stroke-width:0.99999;stroke-dasharray:none" />
</svg>
